<?xml version="1.0" encoding="utf-8"?>
<svg xmlns="http://www.w3.org/2000/svg" xmlns:xlink="http://www.w3.org/1999/xlink" width="166px" height="162px" viewBox="0 0 166 162" version="1.1">
    <title>9BD91A1D-87E8-4FB3-BAA9-E32B3C1222AF</title>
    <defs>
        <rect id="path-1" x="0" y="0" width="160" height="156" rx="6"/>
        <filter x="-3.4%" y="-2.2%" width="106.9%" height="107.1%" filterUnits="objectBoundingBox" id="filter-2">
            <feOffset dx="0" dy="2" in="SourceAlpha" result="shadowOffsetOuter1"/>
            <feGaussianBlur stdDeviation="1.5" in="shadowOffsetOuter1" result="shadowBlurOuter1"/>
            <feColorMatrix values="0 0 0 0 0   0 0 0 0 0   0 0 0 0 0  0 0 0 0.5 0" type="matrix" in="shadowBlurOuter1"/>
        </filter>
        <path d="M52.8163973,3.03205578 C54.0378724,3.03220519 55.2569625,3.04251444 56.4735867,3.06290316 C58.8176007,3.10214355 61.1526047,3.1788357 63.4778719,3.29237579 C65.6635779,3.39916905 67.8402537,3.53842545 70.007856,3.70974622 C70.672886,3.76224321 71.3364408,3.81777056 71.9991291,3.87629689 C73.887998,4.04317795 75.7701421,4.23439161 77.6449265,4.44965813 C78.7425853,4.57563938 79.8372854,4.70986809 80.9294001,4.85227178 C81.7765995,4.96278912 82.6221333,5.07815945 83.4660819,5.19841808 C87.3655699,5.75405389 91.2307539,6.41400457 95.0591622,7.17535073 C96.5291886,7.46769846 97.9934554,7.77491407 99.4521352,8.09690706 C100.236555,8.27006375 101.018884,8.44738388 101.799574,8.62894606 C102.303217,11.3608927 102.70162,14.1294365 102.990468,16.9303048 L103.107443,18.1326436 C103.401713,21.3440913 103.552118,24.5969617 103.552118,27.884877 C103.552118,28.2252792 103.550506,28.5653068 103.54729,28.9049527 L103.552118,27.884877 C103.552118,28.3458977 103.549162,28.8062314 103.543267,29.2658603 C103.540103,29.5125768 103.536091,29.7591637 103.531235,30.0055447 C103.529076,30.1150883 103.526753,30.2244121 103.524265,30.3336951 C103.519054,30.562511 103.513116,30.7911613 103.506451,31.0196304 C103.502363,31.1597675 103.498006,31.2997142 103.493376,31.4395923 C103.470713,32.124351 103.441509,32.8078098 103.405835,33.4895646 C103.401486,33.5727411 103.397025,33.6561295 103.392467,33.7394924 C103.377495,34.0132332 103.361489,34.2866122 103.344445,34.5597114 C103.338395,34.6567043 103.332228,34.7533797 103.325932,34.8500198 C103.287305,35.4428112 103.243779,36.0343815 103.195397,36.6245843 C103.173324,36.8939272 103.150264,37.1626331 103.126199,37.4310511 C103.111794,37.5916265 103.09702,37.7522998 103.081885,37.9128691 C103.069702,38.0422173 103.057273,38.1715384 103.044611,38.3007915 C102.910023,39.6745197 102.749098,41.0406122 102.562341,42.398518 C102.550165,42.487184 102.53795,42.5751703 102.525627,42.663122 C102.486186,42.9444857 102.445595,43.2258991 102.403896,43.5069535 C102.393427,43.5776632 102.382825,43.6486255 102.372152,43.7195648 C102.332867,43.9805282 102.292702,44.2408371 102.251589,44.5008324 C102.23664,44.5955193 102.221498,44.6904359 102.206229,44.7853105 C102.102992,45.4266182 101.99404,46.0657925 101.879369,46.7029935 C101.8502,46.8652573 101.820579,47.0276613 101.790587,47.189936 C101.757524,47.3686469 101.724023,47.5473096 101.690073,47.7258141 C101.663412,47.8661726 101.636497,48.0061336 101.609306,48.1459966 C101.484564,48.7874446 101.353999,49.4270641 101.217677,50.0645649 C101.189898,50.1946699 101.161905,50.3243776 101.133673,50.4539969 C101.092845,50.6412428 101.051579,50.8282358 101.009818,51.0150432 C100.974534,51.1730923 100.938754,51.331423 100.902619,51.4896193 C100.855552,51.6954564 100.807916,51.9011371 100.759679,52.1065882 C100.741936,52.1823772 100.724099,52.2579754 100.70618,52.3335424 C100.65078,52.5669492 100.594678,52.7999729 100.537804,53.0326962 C100.475195,53.289109 100.411685,53.5448013 100.347245,53.8001261 C100.301832,53.9798337 100.2559,54.1598074 100.209506,54.3395969 C100.178009,54.4618886 100.146282,54.5839321 100.114342,54.7058901 C100.065924,54.8905252 100.017107,55.0748678 99.9678035,55.2590134 C99.9228433,55.4271836 99.8773217,55.5955272 99.8313947,55.7637046 C99.8032466,55.8665327 99.7750478,55.9691745 99.746698,56.0717541 C99.6938032,56.2633937 99.6403611,56.4546487 99.5863946,56.6456854 C99.5159495,56.894801 99.4446846,57.1435415 99.3725318,57.3919071 C99.3572664,57.4447103 99.3418504,57.4976206 99.3263942,57.5505138 L99.3725318,57.3919071 C99.2856774,57.6908786 99.1975365,57.9893068 99.1081154,58.2871854 C99.0479774,58.4877813 98.9871823,58.6881216 98.9258087,58.8882107 C98.5378166,60.1528517 98.1267653,61.4075414 97.6930884,62.6517099 C97.6527503,62.7677269 97.6121857,62.8834494 97.5714255,62.9990802 C97.4984799,63.2057221 97.4249186,63.4123334 97.3507331,63.6186493 C97.3064055,63.7422246 97.2619282,63.8651967 97.2172293,63.9880631 C97.1646175,64.1323814 97.1115904,64.2771462 97.0582557,64.4217634 C96.8464606,64.9963523 96.6297941,65.5683672 96.4083265,66.1380036 C96.3347636,66.3269016 96.2606951,66.5157876 96.1860992,66.7044096 C96.1325796,66.8400548 96.0786977,66.975476 96.0245439,67.1107602 C95.9613549,67.2682964 95.8979099,67.4256825 95.8340971,67.5828816 C95.7745691,67.7298468 95.7146331,67.8765439 95.6543769,68.023077 C95.6128769,68.1236752 95.5712871,68.2243681 95.5295463,68.3249831 C95.2648018,68.963466 94.9940495,69.5983337 94.7172945,70.2299993 C94.6602202,70.3599297 94.6031126,70.4895562 94.5457524,70.6190469 C94.4757576,70.7773988 94.405142,70.9357577 94.3341487,71.0939119 C94.2770338,71.22081 94.2197307,71.3477893 94.1621841,71.4746358 C93.8058432,72.2604416 93.4401368,73.0408808 93.0652358,73.8160869 C92.7964238,74.3715721 92.5229491,74.9245892 92.2448013,75.4748657 C92.1859283,75.5916943 92.1268718,75.7079929 92.0676067,75.8241684 C91.9651447,76.0246645 91.8619079,76.2254415 91.7580481,76.4258468 C91.5188601,76.8877411 91.27629,77.3474485 91.0304445,77.8051518 C90.935051,77.982386 90.8391401,78.1597276 90.7427375,78.3367655 C90.6763231,78.459098 90.609763,78.5807606 90.5429709,78.702279 C90.4683669,78.8376415 90.3935775,78.9730035 90.3185002,79.108185 C90.2246818,79.2774811 90.130299,79.4463308 90.0354671,79.6148966 C89.7298341,80.1577895 89.4197486,80.6977398 89.1050582,81.2346906 C89.0501637,81.3287314 88.9948278,81.4228176 88.9393505,81.5168112 C88.82438,81.7112256 88.7090658,81.9051769 88.5931499,82.0987298 C88.535221,82.1958344 88.4769103,82.2928478 88.4184483,82.3897606 C88.2944484,82.5949379 88.1699853,82.7996848 88.0448474,83.0039776 C88.0027328,83.07311 87.9601995,83.1423695 87.9175886,83.2115766 C87.3974241,84.0560176 86.8661166,84.8924026 86.3234901,85.7207767 C86.2622613,85.8146311 86.2004607,85.9086511 86.1385142,86.0025674 C85.8072249,86.5044439 85.4720721,87.0032863 85.1328053,87.4991185 C84.8362894,87.9328564 84.5364133,88.3642211 84.2334228,88.7932505 C84.1535025,88.9060334 84.0736337,89.0186592 83.9935503,89.1311229 C83.8876601,89.2802115 83.7810337,89.4291363 83.674031,89.5777747 C83.5695316,89.722552 83.4650449,89.866927 83.360203,90.0110294 C83.2932177,90.1034816 83.2256782,90.1959996 83.1579924,90.2884046 C83.0340758,90.4571924 82.9100889,90.6254159 82.7856166,90.7932613 C82.6428522,90.9861552 82.4991827,91.1785249 82.3548754,91.3703923 C82.2518419,91.5070019 82.1486784,91.6434791 82.045192,91.7796999 C81.9303572,91.931238 81.8151905,92.0819956 81.6996282,92.2324365 C81.6154648,92.3416228 81.531108,92.4509991 81.4465421,92.5602068 C81.3494608,92.6859556 81.2520133,92.8112196 81.1542907,92.9362602 C81.0559116,93.0617621 80.9574653,93.1871473 80.8587422,93.3123061 C80.4780684,93.7952952 80.0930399,94.2748341 79.7039439,94.7509503 C79.5922766,94.8872167 79.4805925,95.0231898 79.3685765,95.1588814 C79.2830833,95.2628187 79.196857,95.3668678 79.1104356,95.4707502 C79.005787,95.596169 78.9013639,95.721106 78.7966583,95.8458002 C78.1998126,96.5569584 77.593579,97.2600893 76.9783422,97.955141 C76.8515241,98.098047 76.7247083,98.2405429 76.5975138,98.3826961 C76.5151962,98.4750564 76.4325816,98.567065 76.3498084,98.6589291 C76.1863088,98.840025 76.0223433,99.02075 75.857763,99.2009091 C75.8116762,99.2517169 75.765045,99.3026633 75.7183647,99.3535643 C75.2645132,99.8480887 74.8065885,100.338074 74.3440959,100.82371 C74.2986691,100.87176 74.2527842,100.919851 74.2068545,100.9679 C74.037152,101.145082 73.8671407,101.321716 73.6965233,101.497765 C73.5958692,101.601968 73.4949521,101.705675 73.3938244,101.809178 C73.3151506,101.889355 73.236733,101.969362 73.1581895,102.049246 C72.4503441,102.769515 71.7320255,103.479694 71.0037122,104.179644 C70.9122381,104.267228 70.820837,104.354759 70.7292794,104.442128 C70.6281087,104.538997 70.5263992,104.635673 70.424498,104.73215 C70.3628857,104.790159 70.3013764,104.848257 70.2397974,104.906282 C64.9142027,109.924818 59.0683805,114.402171 52.7912759,118.250175 C22.3339936,99.5791863 2.03043369,66.0911261 2.03043369,27.884877 C2.03043369,21.309304 2.63179428,14.8733955 3.78297766,8.62894606 C19.5232415,4.96829121 35.9298708,3.03205578 52.7912759,3.03205578 L52.8163973,3.03205578 L52.8163973,3.03205578 Z" id="path-3"/>
        <filter x="-6.9%" y="-4.3%" width="113.8%" height="112.2%" filterUnits="objectBoundingBox" id="filter-4">
            <feOffset dx="0" dy="2" in="SourceAlpha" result="shadowOffsetOuter1"/>
            <feGaussianBlur stdDeviation="2" in="shadowOffsetOuter1" result="shadowBlurOuter1"/>
            <feColorMatrix values="0 0 0 0 0   0 0 0 0 0   0 0 0 0 0  0 0 0 0.536276224 0" type="matrix" in="shadowBlurOuter1"/>
        </filter>
        <path d="M104.804235,7.73824897 L104.498414,6.07192326 L102.848218,5.68625241 C86.702537,1.91309297 70.0318879,0 53.2988843,0 C36.5661394,0 19.8952316,1.91309297 3.74929191,5.68599374 L2.09909635,6.07166459 L1.7932746,7.7379903 C0.603364069,14.2240377 0,20.8844258 0,27.5342087 C0,46.4892456 4.93997863,65.1589741 14.2859121,81.5252827 C23.3487923,97.3959874 36.3700202,110.854633 51.9418326,120.446223 L53.2991431,121.282231 L54.6561947,120.446223 C70.2282659,110.854633 83.2492351,97.3959874 92.3121153,81.5252827 C101.65779,65.1589741 106.597769,46.4892456 106.597769,27.5342087 C106.597769,20.8841672 105.994405,14.223779 104.804235,7.73824897 Z M53.2988843,115.191684 C23.1343031,95.984189 5.17464896,63.3356381 5.17464896,27.5342087 C5.17464896,21.7664765 5.65071667,15.9915017 6.59095038,10.3419799 C21.8315852,6.91181143 37.5363861,5.17331793 53.2988843,5.17331793 C69.0613825,5.17331793 84.7664421,6.91181143 100.006818,10.3419799 C100.947052,15.9912431 101.42312,21.7662179 101.42312,27.5342087 C101.42312,63.3356381 83.4637243,95.984189 53.2988843,115.191684 Z" id="path-5"/>
        <filter x="-1.9%" y="-0.8%" width="103.8%" height="103.3%" filterUnits="objectBoundingBox" id="filter-6">
            <feOffset dx="0" dy="1" in="SourceAlpha" result="shadowOffsetOuter1"/>
            <feGaussianBlur stdDeviation="0.5" in="shadowOffsetOuter1" result="shadowBlurOuter1"/>
            <feColorMatrix values="0 0 0 0 0   0 0 0 0 0   0 0 0 0 0  0 0 0 0.412642045 0" type="matrix" in="shadowBlurOuter1"/>
        </filter>
        <path d="M112.433442,25 C114.994576,26.9262266 116.929985,31.5034767 117.173556,36.9206021 C117.332857,40.4627093 116.739888,43.7130408 115.645498,46.1398162 C115.431478,46.6143291 115.104339,46.9771846 114.718301,47.225918 C114.646437,48.854979 114.512065,50.4743047 114.316143,52.0809203 C117.593506,47.9568731 121.695856,45.4482204 124.827843,45.3635295 C125.533358,48.4993453 124.050935,53.2442891 120.73921,57.5255429 C117.937622,61.1471484 114.493375,63.5754724 111.56262,64.2898843 C110.57337,67.2511362 109.36104,70.1365852 107.933259,72.9269146 C112.091042,70.2570397 116.450962,69.2199273 119.325659,70.0246319 C119.082368,73.2302264 116.277103,77.327186 111.85895,80.4404926 C107.904982,83.2265714 103.653969,84.5236653 100.595614,84.1469172 C99.7084,85.2349566 98.7817106,86.2993614 97.8161058,87.338162 C95.6220076,89.6988165 93.2764475,91.8751768 90.7993031,93.8582392 C95.8910555,92.9876951 100.528982,93.8244754 102.907298,95.8097886 C101.38036,98.6349772 97.1528649,101.21988 91.8539373,102.244049 C87.0197541,103.178463 82.5341294,102.57381 79.9161618,100.900812 C76.679188,102.55946 73.301951,103.943214 69.8149671,105.038569 C70.5890747,105.102158 71.3673819,105.151959 72.1496085,105.187693 C72.9217564,105.222863 73.519765,105.880414 73.4847692,106.656701 C73.4497734,107.432706 72.7954915,108.033702 72.0230636,107.998532 C68.7956088,107.85194 65.6146283,107.476037 62.49972,106.879824 C59.3848117,107.475755 56.2041113,107.851659 52.9763764,107.998532 C52.2042286,108.033702 51.5496667,107.432706 51.5146709,106.656701 C51.479675,105.880414 52.0776837,105.222863 52.8498315,105.187693 C53.6320582,105.152241 54.4103653,105.102439 55.1844729,105.038569 C51.697489,103.943214 48.320252,102.559179 45.0832783,100.900812 C42.4653107,102.57381 37.979686,103.178463 33.1455028,102.244049 C27.8468551,101.21988 23.6193596,98.6346959 22.0921418,95.8097886 C24.470458,93.8244754 29.1083846,92.9876951 34.200137,93.8582392 C31.7227126,91.8751768 29.3774325,89.6988165 27.1833343,87.338162 C26.2177295,86.2993614 25.2910401,85.2349566 24.4038259,84.1469172 C21.3454709,84.5236653 17.0944582,83.2268528 13.14049,80.4404926 C8.72233719,77.3274673 5.9173519,73.2302264 5.67378096,70.0246319 C8.54847793,69.2199273 12.9083977,70.2570397 17.0673014,72.9269146 L16.91,72.615 L16.8672266,72.531651 C16.8551988,72.5077277 16.8431867,72.4837975 16.8311904,72.4598605 L17.0673014,72.9269146 C16.7065445,72.2218031 16.3595426,71.5106175 16.0264158,70.7936831 C16.0057246,70.7484084 15.9845813,70.702764 15.9634943,70.6570966 C15.8481729,70.408077 15.7350209,70.158713 15.6235408,69.9086748 C15.6020179,69.8596687 15.5802475,69.8106723 15.5585413,69.7616501 C15.3177373,69.2185145 15.0852096,68.6723996 14.8606045,68.1232626 C14.8299125,68.0474814 14.7991207,67.9717739 14.7684795,67.8960095 C14.5424331,67.337829 14.3247931,66.7763806 14.1153799,66.2119813 C14.0961319,66.1592606 14.0766852,66.106628 14.0573101,66.0539698 C13.9585976,65.7865552 13.8620623,65.5185329 13.7673763,65.2498681 C13.757524,65.2209637 13.7475752,65.1926663 13.737647,65.1643618 C13.6408709,64.8894489 13.5461965,64.6133608 13.4534702,64.3366162 L13.4383744,64.2904079 L13.4383744,64.2904079 C10.5074042,63.5763029 7.06269523,61.1478393 4.26078957,57.5258243 C0.949064756,53.2445705 -0.533358349,48.4996267 0.172157463,45.3638108 C3.30386376,45.4482204 7.4064942,47.9568731 10.6854629,52.0819692 L10.6433484,51.7315473 C10.5492326,50.9219884 10.4707269,50.1092599 10.4079604,49.2937111 C10.4017162,49.2079317 10.3952748,49.1219661 10.3890082,49.0359694 C10.3717293,48.8035858 10.3561133,48.5715034 10.3417717,48.3392044 C10.3402136,48.3085891 10.3383218,48.2775952 10.3364528,48.2465976 C10.3156456,47.9067738 10.2979153,47.5669449 10.2829134,47.226681 C9.89651085,46.9783498 9.5687644,46.6150926 9.35450175,46.1398162 C8.26011234,43.7130408 7.66686313,40.4629907 7.82644409,36.9206021 C8.07029499,31.5034767 10.0054241,26.9262266 12.5665585,25 C14.9443147,27.1507561 16.4603338,31.8847266 16.2167629,37.3021333 C16.0574619,40.8442406 15.1747272,44.0273258 13.8667233,46.3449315 C13.6633664,46.7052687 13.3951042,46.9888157 13.0892029,47.1968051 C13.1138155,47.7495824 13.1474346,48.3014899 13.1885852,48.8515294 C13.193157,48.9131974 13.197845,48.9745821 13.2026269,49.0359434 L13.1885852,48.8515294 C13.2085436,49.118303 13.2302737,49.3846372 13.2537641,49.65052 L13.2026269,49.0359434 C13.225364,49.3277105 13.2502208,49.6189483 13.2771825,49.909641 L13.2537641,49.65052 C13.3883196,51.1735181 13.580636,52.6817039 13.8286007,54.1728211 C13.8778196,54.4688558 13.9293011,54.7645165 13.982965,55.0594861 L14,55.153 L14.1125534,54.6062689 C14.3118935,53.6892917 14.5723791,52.7543384 14.8964404,51.8141095 C16.6621897,46.6898853 19.8118139,42.8543141 22.8122159,41.7389822 C24.4836164,44.4803239 24.5986827,49.4520481 22.8329334,54.5762722 C21.3414671,58.9039461 18.8628179,62.3129221 16.3207915,63.939749 C16.4350878,64.2723504 16.5534155,64.6033919 16.6745734,64.9331633 C16.8740034,65.4759678 17.0814073,66.0161668 17.2963792,66.5527831 C17.3299896,66.6366263 17.3637491,66.7203425 17.3976927,66.8039707 L17.2963792,66.5527831 C17.433286,66.894532 17.5732622,67.2348279 17.7162753,67.5736357 L17.3976927,66.8039707 C17.5313498,67.1332673 17.6678612,67.4612 17.8071978,67.7877374 L17.7162753,67.5736357 C17.8255999,67.8326335 17.9366993,68.0907617 18.0495586,68.3480047 L17.8071978,67.7877374 C17.9266465,68.0676671 18.0481714,68.3465715 18.1717543,68.6244309 L18.0495586,68.3480047 C18.2035815,68.6990728 18.3608825,69.0484924 18.5214244,69.3962236 L18.1717543,68.6244309 C18.3050255,68.9240731 18.4406901,69.2225001 18.578725,69.5196872 L18.5214244,69.3962236 C18.634714,69.641607 18.7496176,69.8861496 18.866122,70.1298376 L18.578725,69.5196872 C18.7198041,69.8234285 18.8633594,70.1258746 19.0093663,70.4269993 L18.866122,70.1298376 C19.0205214,70.452789 19.1777324,70.7742393 19.3377249,71.0941561 L19.0093663,70.4269993 C19.1623256,70.7424626 19.3179756,71.0564757 19.4762881,71.3690082 C19.569143,71.5527985 19.6629936,71.7357738 19.7577556,71.9182326 L19.4762881,71.3690082 C20.7261221,73.8363668 22.1419037,76.2114491 23.7097888,78.4793767 C23.2694013,76.7349121 23.0261103,74.777454 23.0345093,72.7105447 C23.0566267,67.287792 24.8030583,62.6345733 27.2835623,60.6042416 C29.7472683,62.655113 31.4556245,67.3224 31.4335071,72.7451527 C31.4139094,77.5269553 30.0538317,81.710294 28.031913,84.0245233 C32.1230648,88.6971562 36.9258917,92.7623215 42.2824925,96.0495119 C40.7796319,94.3883313 39.4019163,92.2038115 38.3582008,89.6692732 C36.295127,84.6584392 36.1184681,79.6884032 37.6263681,76.8530855 C40.6869629,77.7889064 44.0560809,81.4311797 46.1191547,86.4420136 C48.0576434,91.1506613 48.3306108,95.8232942 47.105477,98.7224818 C51.9049443,101.11071 57.0686481,102.905539 62.5005599,104.003145 C67.9324718,102.905258 73.0961756,101.11071 77.8956429,98.7224818 C76.6702291,95.8232942 76.9431965,91.1506613 78.8819652,86.4420136 C80.945039,81.4311797 84.314157,77.788625 87.3747517,76.8530855 C88.8826518,79.6886846 88.7059929,84.6587206 86.6429191,89.6692732 C85.5994836,92.2038115 84.221768,94.3883313 82.7186273,96.0495119 C88.0752282,92.7620401 92.878055,88.6971562 96.9692069,84.0245233 C94.9472881,81.710294 93.5869305,77.5269553 93.5676128,72.7451527 C93.5454954,67.3224 95.2538515,62.655113 97.7175576,60.6042416 C100.197782,62.6345733 101.944213,67.287792 101.966611,72.7105447 C101.97501,74.7777353 101.731999,76.7349121 101.291331,78.4793767 C102.664635,76.4929088 103.921236,74.4242224 105.051836,72.2833214 L105.15291,72.0892902 L105.15291,72.0892902 C106.521947,69.4737188 107.703406,66.7515099 108.680209,63.9401082 C106.137833,62.3138169 103.658729,58.9045141 102.167067,54.5759909 C100.401317,49.4517667 100.516384,44.4797612 102.187784,41.7387008 C105.188186,42.8540327 108.33809,46.6898853 110.10356,51.8138281 C110.492153,52.9418214 110.789758,54.0627806 110.999733,55.1539151 C111.477544,52.5510083 111.785494,49.8942351 111.912171,47.1956007 C111.604885,46.9888045 111.336634,46.7052687 111.133277,46.3449315 C109.825273,44.0273258 108.942818,40.8442406 108.783237,37.3021333 C108.539666,31.8847266 110.055685,27.1507561 112.433442,25 Z" id="path-7"/>
        <filter x="-1.6%" y="-1.2%" width="103.2%" height="104.8%" filterUnits="objectBoundingBox" id="filter-8">
            <feOffset dx="0" dy="1" in="SourceAlpha" result="shadowOffsetOuter1"/>
            <feGaussianBlur stdDeviation="0.5" in="shadowOffsetOuter1" result="shadowBlurOuter1"/>
            <feColorMatrix values="0 0 0 0 0   0 0 0 0 0   0 0 0 0 0  0 0 0 0.419607736 0" type="matrix" in="shadowBlurOuter1"/>
        </filter>
        <path d="M61.5,21 L94,33.6759562 L94,38.3240437 L83,42.614 L83,59.052598 C81.7183498,60.1335696 80.3814941,61.1041472 79.0006263,61.9644179 L79,68.9892049 C79,69.0495701 78.9947016,69.1087036 78.9845439,69.1661654 C80.1575825,69.572426 81,70.6878691 81,72.0002671 C81,73.6568758 79.6568758,75 78.0002671,75 C76.3431242,75 75,73.6568758 75,72.0002671 C75,70.695637 75.8324747,69.5856371 76.9952641,69.1724277 C76.9828665,69.1135147 76.9771281,69.0520268 76.9771281,68.9892049 L76.9779419,63.1296555 C76.6542689,63.3014755 76.3285909,63.4675717 76.0010403,63.6279452 L76,64.1601037 C75.3401446,64.4619176 74.6733117,64.741883 74,65 L74.0008766,64.5279189 C73.8664475,64.5831849 73.7317501,64.6375309 73.5967884,64.6909569 C68.4149059,66.7392954 62.8661862,67.4248321 57.4397455,66.7475673 C51.2207007,65.9715561 45.1627304,63.4062217 40,59.052598 L40,42.707 L29,38.5611456 L29,33.6759562 L61.5,21 Z" id="path-9"/>
        <filter x="-7.7%" y="-7.4%" width="115.4%" height="118.5%" filterUnits="objectBoundingBox" id="filter-10">
            <feOffset dx="0" dy="1" in="SourceAlpha" result="shadowOffsetOuter1"/>
            <feGaussianBlur stdDeviation="1.5" in="shadowOffsetOuter1" result="shadowBlurOuter1"/>
            <feColorMatrix values="0 0 0 0 0   0 0 0 0 0   0 0 0 0 0  0 0 0 0.356588724 0" type="matrix" in="shadowBlurOuter1"/>
        </filter>
    </defs>
    <g id="Library-Types---Pictograms" stroke="none" stroke-width="1" fill="none" fill-rule="evenodd">
        <g id="Library-Types" transform="translate(-79.000000, -148.000000)">
            <g id="Library-Type-/-Pictogram-/-Academic" transform="translate(82.000000, 149.000000)">
                <g id="Rectangle">
                    <use fill="black" fill-opacity="1" filter="url(#filter-2)" xlink:href="#path-1"/>
                    <use fill="#236192" fill-rule="evenodd" xlink:href="#path-1"/>
                </g>
                <g id="Combined-Shadow-+-Grad-Cap-Mask" transform="translate(19.000000, 19.000000)" fill-rule="nonzero">
                    <g id="Mask">
                        <g id="Shield" transform="translate(8.000000, 0.000000)">
                            <g id="Combined-Shape">
                                <use fill="black" fill-opacity="1" filter="url(#filter-4)" xlink:href="#path-3"/>
                                <use fill="#439DD1" xlink:href="#path-3"/>
                            </g>
                            <path d="M102.803423,8.64020779 C103.961813,14.897222 104.567335,21.3458222 104.567335,27.9348844 C104.567335,58.3281248 91.6871554,85.7411952 71.0389344,105.111267 C56.1766674,89.6730985 46.6999748,66.2830767 46.6999748,40.1008561 C46.6999748,26.7982782 49.1463045,14.2166009 53.5025176,3.03205578 C70.4641707,3.03412139 86.9688802,4.9739946 102.803423,8.64020779 L102.803423,8.64020779 Z" id="Path" fill="#75BDE6" opacity="0.680436955"/>
                            <g id="Shape">
                                <use fill="black" fill-opacity="1" filter="url(#filter-6)" xlink:href="#path-5"/>
                                <use fill="#0F85C9" xlink:href="#path-5"/>
                            </g>
                        </g>
                        <g id="Combined-Shadow" opacity="0.734125182" fill="black" fill-opacity="1">
                            <use filter="url(#filter-8)" xlink:href="#path-7"/>
                        </g>
                        <path d="M112.433442,23 C114.994576,24.9262266 116.929985,29.5034767 117.173556,34.9206021 C117.332857,38.4627093 116.739888,41.7130408 115.645498,44.1398162 C115.431478,44.6143291 115.104339,44.9771846 114.718301,45.225918 C114.646437,46.854979 114.512065,48.4743047 114.316143,50.0809203 C117.593506,45.9568731 121.695856,43.4482204 124.827843,43.3635295 C125.533358,46.4993453 124.050935,51.2442891 120.73921,55.5255429 C117.937622,59.1471484 114.493375,61.5754724 111.56262,62.2898843 C110.57337,65.2511362 109.36104,68.1365852 107.933259,70.9269146 C112.091042,68.2570397 116.450962,67.2199273 119.325659,68.0246319 C119.082368,71.2302264 116.277103,75.327186 111.85895,78.4404926 C107.904982,81.2265714 103.653969,82.5236653 100.595614,82.1469172 C99.7084,83.2349566 98.7817106,84.2993614 97.8161058,85.338162 C95.6220076,87.6988165 93.2764475,89.8751768 90.7993031,91.8582392 C95.8910555,90.9876951 100.528982,91.8244754 102.907298,93.8097886 C101.38036,96.6349772 97.1528649,99.2198799 91.8539373,100.244049 C87.0197541,101.178463 82.5341294,100.57381 79.9161618,98.9008117 C76.679188,100.55946 73.301951,101.943214 69.8149671,103.038569 C70.5890747,103.102158 71.3673819,103.151959 72.1496085,103.187693 C72.9217564,103.222863 73.519765,103.880414 73.4847692,104.656701 C73.4497734,105.432706 72.7954915,106.033702 72.0230636,105.998532 C68.7956088,105.85194 65.6146283,105.476037 62.49972,104.879824 C59.3848117,105.475755 56.2041113,105.851659 52.9763764,105.998532 C52.2042286,106.033702 51.5496667,105.432706 51.5146709,104.656701 C51.479675,103.880414 52.0776837,103.222863 52.8498315,103.187693 C53.6320582,103.152241 54.4103653,103.102439 55.1844729,103.038569 C51.697489,101.943214 48.320252,100.559179 45.0832783,98.9008117 C42.4653107,100.57381 37.979686,101.178463 33.1455028,100.244049 C27.8468551,99.2198799 23.6193596,96.6346959 22.0921418,93.8097886 C24.470458,91.8244754 29.1083846,90.9876951 34.200137,91.8582392 C31.7227126,89.8751768 29.3774325,87.6988165 27.1833343,85.338162 C26.2177295,84.2993614 25.2910401,83.2349566 24.4038259,82.1469172 C21.3454709,82.5236653 17.0944582,81.2268528 13.14049,78.4404926 C8.72233719,75.3274673 5.9173519,71.2302264 5.67378096,68.0246319 C8.54847793,67.2199273 12.9083977,68.2570397 17.0673014,70.9269146 L16.91,70.615 L16.8672266,70.531651 C16.8551988,70.5077277 16.8431867,70.4837975 16.8311904,70.4598605 L17.0673014,70.9269146 C16.7065445,70.2218031 16.3595426,69.5106175 16.0264158,68.7936831 C16.0057246,68.7484084 15.9845813,68.702764 15.9634943,68.6570966 C15.8481729,68.408077 15.7350209,68.158713 15.6235408,67.9086748 C15.6020179,67.8596687 15.5802475,67.8106723 15.5585413,67.7616501 C15.3177373,67.2185145 15.0852096,66.6723996 14.8606045,66.1232626 C14.8299125,66.0474814 14.7991207,65.9717739 14.7684795,65.8960095 C14.5424331,65.337829 14.3247931,64.7763806 14.1153799,64.2119813 C14.0961319,64.1592606 14.0766852,64.106628 14.0573101,64.0539698 C13.9585976,63.7865552 13.8620623,63.5185329 13.7673763,63.2498681 C13.757524,63.2209637 13.7475752,63.1926663 13.737647,63.1643618 C13.6408709,62.8894489 13.5461965,62.6133608 13.4534702,62.3366162 L13.4383744,62.2904079 L13.4383744,62.2904079 C10.5074042,61.5763029 7.06269523,59.1478393 4.26078957,55.5258243 C0.949064756,51.2445705 -0.533358349,46.4996267 0.172157463,43.3638108 C3.30386376,43.4482204 7.4064942,45.9568731 10.6854629,50.0819692 L10.6433484,49.7315473 C10.5492326,48.9219884 10.4707269,48.1092599 10.4079604,47.2937111 C10.4017162,47.2079317 10.3952748,47.1219661 10.3890082,47.0359694 C10.3717293,46.8035858 10.3561133,46.5715034 10.3417717,46.3392044 C10.3402136,46.3085891 10.3383218,46.2775952 10.3364528,46.2465976 C10.3156456,45.9067738 10.2979153,45.5669449 10.2829134,45.226681 C9.89651085,44.9783498 9.5687644,44.6150926 9.35450175,44.1398162 C8.26011234,41.7130408 7.66686313,38.4629907 7.82644409,34.9206021 C8.07029499,29.5034767 10.0054241,24.9262266 12.5665585,23 C14.9443147,25.1507561 16.4603338,29.8847266 16.2167629,35.3021333 C16.0574619,38.8442406 15.1747272,42.0273258 13.8667233,44.3449315 C13.6633664,44.7052687 13.3951042,44.9888157 13.0892029,45.1968051 C13.1138155,45.7495824 13.1474346,46.3014899 13.1885852,46.8515294 C13.193157,46.9131974 13.197845,46.9745821 13.2026269,47.0359434 L13.1885852,46.8515294 C13.2085436,47.118303 13.2302737,47.3846372 13.2537641,47.65052 L13.2026269,47.0359434 C13.225364,47.3277105 13.2502208,47.6189483 13.2771825,47.909641 L13.2537641,47.65052 C13.3883196,49.1735181 13.580636,50.6817039 13.8286007,52.1728211 C13.8778196,52.4688558 13.9293011,52.7645165 13.982965,53.0594861 L14,53.153 L14.1125534,52.6062689 C14.3118935,51.6892917 14.5723791,50.7543384 14.8964404,49.8141095 C16.6621897,44.6898853 19.8118139,40.8543141 22.8122159,39.7389822 C24.4836164,42.4803239 24.5986827,47.4520481 22.8329334,52.5762722 C21.3414671,56.9039461 18.8628179,60.3129221 16.3207915,61.939749 C16.4350878,62.2723504 16.5534155,62.6033919 16.6745734,62.9331633 C16.8740034,63.4759678 17.0814073,64.0161668 17.2963792,64.5527831 C17.3299896,64.6366263 17.3637491,64.7203425 17.3976927,64.8039707 L17.2963792,64.5527831 C17.433286,64.894532 17.5732622,65.2348279 17.7162753,65.5736357 L17.3976927,64.8039707 C17.5313498,65.1332673 17.6678612,65.4612 17.8071978,65.7877374 L17.7162753,65.5736357 C17.8255999,65.8326335 17.9366993,66.0907617 18.0495586,66.3480047 L17.8071978,65.7877374 C17.9266465,66.0676671 18.0481714,66.3465715 18.1717543,66.6244309 L18.0495586,66.3480047 C18.2035815,66.6990728 18.3608825,67.0484924 18.5214244,67.3962236 L18.1717543,66.6244309 C18.3050255,66.9240731 18.4406901,67.2225001 18.578725,67.5196872 L18.5214244,67.3962236 C18.634714,67.641607 18.7496176,67.8861496 18.866122,68.1298376 L18.578725,67.5196872 C18.7198041,67.8234285 18.8633594,68.1258746 19.0093663,68.4269993 L18.866122,68.1298376 C19.0205214,68.452789 19.1777324,68.7742393 19.3377249,69.0941561 L19.0093663,68.4269993 C19.1623256,68.7424626 19.3179756,69.0564757 19.4762881,69.3690082 C19.569143,69.5527985 19.6629936,69.7357738 19.7577556,69.9182326 L19.4762881,69.3690082 C20.7261221,71.8363668 22.1419037,74.2114491 23.7097888,76.4793767 C23.2694013,74.7349121 23.0261103,72.777454 23.0345093,70.7105447 C23.0566267,65.287792 24.8030583,60.6345733 27.2835623,58.6042416 C29.7472683,60.655113 31.4556245,65.3224 31.4335071,70.7451527 C31.4139094,75.5269553 30.0538317,79.710294 28.031913,82.0245233 C32.1230648,86.6971562 36.9258917,90.7623215 42.2824925,94.0495119 C40.7796319,92.3883313 39.4019163,90.2038115 38.3582008,87.6692732 C36.295127,82.6584392 36.1184681,77.6884032 37.6263681,74.8530855 C40.6869629,75.7889064 44.0560809,79.4311797 46.1191547,84.4420136 C48.0576434,89.1506613 48.3306108,93.8232942 47.105477,96.7224818 C51.9049443,99.1107102 57.0686481,100.905539 62.5005599,102.003145 C67.9324718,100.905258 73.0961756,99.1107102 77.8956429,96.7224818 C76.6702291,93.8232942 76.9431965,89.1506613 78.8819652,84.4420136 C80.945039,79.4311797 84.314157,75.788625 87.3747517,74.8530855 C88.8826518,77.6886846 88.7059929,82.6587206 86.6429191,87.6692732 C85.5994836,90.2038115 84.221768,92.3883313 82.7186273,94.0495119 C88.0752282,90.7620401 92.878055,86.6971562 96.9692069,82.0245233 C94.9472881,79.710294 93.5869305,75.5269553 93.5676128,70.7451527 C93.5454954,65.3224 95.2538515,60.655113 97.7175576,58.6042416 C100.197782,60.6345733 101.944213,65.287792 101.966611,70.7105447 C101.97501,72.7777353 101.731999,74.7349121 101.291331,76.4793767 C102.664635,74.4929088 103.921236,72.4242224 105.051836,70.2833214 L105.15291,70.0892902 L105.15291,70.0892902 C106.521947,67.4737188 107.703406,64.7515099 108.680209,61.9401082 C106.137833,60.3138169 103.658729,56.9045141 102.167067,52.5759909 C100.401317,47.4517667 100.516384,42.4797612 102.187784,39.7387008 C105.188186,40.8540327 108.33809,44.6898853 110.10356,49.8138281 C110.492153,50.9418214 110.789758,52.0627806 110.999733,53.1539151 C111.477544,50.5510083 111.785494,47.8942351 111.912171,45.1956007 C111.604885,44.9888045 111.336634,44.7052687 111.133277,44.3449315 C109.825273,42.0273258 108.942818,38.8442406 108.783237,35.3021333 C108.539666,29.8847266 110.055685,25.1507561 112.433442,23 Z" id="Combined-Shape" fill="#E3F4FE"/>
                    </g>
                    <g id="Combined-Shadow">
                        <use fill="black" fill-opacity="1" filter="url(#filter-10)" xlink:href="#path-9"/>
                        <use fill="#545D68" xlink:href="#path-9"/>
                    </g>
                    <g id="Grad-Cap" transform="translate(29.000000, 21.000000)">
                        <path d="M54,22 L54,38.370494 C51.6811173,40.2480582 49.181517,41.7786975 46.567495,42.962908 C45.9173043,43.2577197 45.2602384,43.53119 44.5967884,43.7833186 C39.4149059,45.7497235 33.8661862,46.4078388 28.4397455,45.7576646 C22.2207007,45.0126939 16.1627304,42.5499729 11,38.370494 L11,22 L54,22 Z" id="Path" fill="#1074C3"/>
                        <g id="Group" transform="translate(11.000000, 21.000000)" fill="#074786">
                            <path d="M10.7026732,0.0383669498 L10.7026732,22.6112591 C6.94508449,21.3188986 3.35995256,19.3445152 0.124168945,16.6896232 L0.124168945,0.0383669498 L10.7026732,0.0383669498 Z" id="Path"/>
                            <path d="M35.8114078,3.56509743 L35.8114078,21.3602945 C35.1590282,21.6601624 34.4997501,21.9383229 33.8340666,22.1947756 L33.8340666,3.56509743 C33.8340666,2.88004535 34.2770344,2.32372464 34.8229836,2.32372464 C35.36844,2.32372464 35.8114078,2.88004535 35.8114078,3.56509743 Z" id="Path"/>
                            <polygon id="Path" points="43.2689356 0.0378621539 43.2689356 1.38827785 21.6965522 9.8143667 0.124168945 1.38827785 0.124168945 0.0378621539"/>
                        </g>
                        <polygon id="Path" fill="#DBEFFF" points="65 12.6759562 65 17.3240437 32.5 30 0 17.3240437 0 12.6759562 32.5 0"/>
                        <polygon id="Path" fill="#1074C3" points="32 25.4393522 32 30 0 17.5611456 0 13"/>
                        <polygon id="Path" fill="#5DB1E1" points="65 25.4393522 65 30 33 17.5611456 33 13" transform="translate(49.000000, 21.500000) scale(-1, 1) translate(-49.000000, -21.500000)"/>
                        <path d="M48.9885641,49 C48.4299044,49 47.9771281,48.5472322 47.9771281,47.9892049 L47.9771281,19.3409445 L31.5944873,11.9314688 C31.0857441,11.7013076 30.8598601,11.1024858 31.090282,10.5938147 C31.3207038,10.0856471 31.9196997,9.86001865 32.4294514,10.0901799 L49.406046,17.7685965 C49.7680655,17.9322778 50,18.2923768 50,18.6887374 L50,47.9892049 C50,48.5472322 49.5472235,49 48.9885641,49 Z" id="Path" fill="#6198CE"/>
                        <path d="M52,51.0002671 C52,52.6568758 50.6568758,54 49.0002671,54 C47.3431242,54 46,52.6568758 46,51.0002671 C46,49.3431242 47.3431242,48 49.0002671,48 C50.6568758,48 52,49.3431242 52,51.0002671 L52,51.0002671 Z" id="Path" fill="#D5EFFF"/>
                    </g>
                </g>
            </g>
        </g>
    </g>
</svg>