<svg width="64" height="24" viewBox="0 0 64 24" fill="none" xmlns="http://www.w3.org/2000/svg">
<path d="M0.312 0.599998H5.624C7.43733 0.599998 8.76 1.02667 9.592 1.88C10.424 2.712 10.84 4.00267 10.84 5.752V6.648C10.84 7.8 10.648 8.73867 10.264 9.464C9.90133 10.1893 9.336 10.712 8.568 11.032V11.096C10.3173 11.6933 11.192 13.2507 11.192 15.768V17.688C11.192 19.416 10.7333 20.7387 9.816 21.656C8.92 22.552 7.59733 23 5.848 23H0.312V0.599998ZM5.208 9.72C5.912 9.72 6.43467 9.53867 6.776 9.176C7.13867 8.81333 7.32 8.20533 7.32 7.352V6.104C7.32 5.29333 7.17067 4.70667 6.872 4.344C6.59467 3.98133 6.14667 3.8 5.528 3.8H3.832V9.72H5.208ZM5.848 19.8C6.46667 19.8 6.92533 19.64 7.224 19.32C7.52267 18.9787 7.672 18.4027 7.672 17.592V15.64C7.672 14.616 7.49067 13.912 7.128 13.528C6.78667 13.1227 6.21067 12.92 5.4 12.92H3.832V19.8H5.848ZM18.3375 23.32C16.6095 23.32 15.2868 22.8293 14.3695 21.848C13.4522 20.8667 12.9935 19.48 12.9935 17.688V5.912C12.9935 4.12 13.4522 2.73333 14.3695 1.752C15.2868 0.770665 16.6095 0.279999 18.3375 0.279999C20.0655 0.279999 21.3882 0.770665 22.3055 1.752C23.2228 2.73333 23.6815 4.12 23.6815 5.912V17.688C23.6815 19.48 23.2228 20.8667 22.3055 21.848C21.3882 22.8293 20.0655 23.32 18.3375 23.32ZM18.3375 20.12C19.5535 20.12 20.1615 19.384 20.1615 17.912V5.688C20.1615 4.216 19.5535 3.48 18.3375 3.48C17.1215 3.48 16.5135 4.216 16.5135 5.688V17.912C16.5135 19.384 17.1215 20.12 18.3375 20.12ZM31.15 23.32C29.422 23.32 28.0993 22.8293 27.182 21.848C26.2647 20.8667 25.806 19.48 25.806 17.688V5.912C25.806 4.12 26.2647 2.73333 27.182 1.752C28.0993 0.770665 29.422 0.279999 31.15 0.279999C32.878 0.279999 34.2007 0.770665 35.118 1.752C36.0353 2.73333 36.494 4.12 36.494 5.912V17.688C36.494 19.48 36.0353 20.8667 35.118 21.848C34.2007 22.8293 32.878 23.32 31.15 23.32ZM31.15 20.12C32.366 20.12 32.974 19.384 32.974 17.912V5.688C32.974 4.216 32.366 3.48 31.15 3.48C29.934 3.48 29.326 4.216 29.326 5.688V17.912C29.326 19.384 29.934 20.12 31.15 20.12ZM38.8745 0.599998H42.3945V10.04L46.8745 0.599998H50.3945L46.2025 8.824L50.4585 23H46.7785L43.8025 13.016L42.3945 15.864V23H38.8745V0.599998ZM55.3565 13.464L51.1005 0.599998H54.8445L57.2445 8.824H57.3085L59.7085 0.599998H63.1325L58.8765 13.464V23H55.3565V13.464Z" fill="black"/>
</svg>
